<mxfile host="Electron" agent="Mozilla/5.0 (Macintosh; Intel Mac OS X 10_15_7) AppleWebKit/537.36 (KHTML, like Gecko) draw.io/25.0.2 Chrome/128.0.6613.186 Electron/32.2.5 Safari/537.36" version="25.0.2">
  <diagram name="第 1 页" id="mpLwqA_GZ9wF8Sukwznu">
    <mxGraphModel dx="3758" dy="2206" grid="1" gridSize="10" guides="1" tooltips="1" connect="1" arrows="1" fold="1" page="1" pageScale="1" pageWidth="827" pageHeight="1169" math="0" shadow="0">
      <root>
        <mxCell id="0" />
        <mxCell id="1" parent="0" />
        <mxCell id="NWqzphJ8UUNpfhIfImkF-1" value="&lt;div style=&quot;color: rgb(219, 215, 202); background-color: rgb(0, 0, 0); font-family: input, consolas, Menlo, Monaco, &amp;quot;Courier New&amp;quot;, monospace, Menlo, Monaco, &amp;quot;Courier New&amp;quot;, monospace; line-height: 30px; white-space: pre;&quot;&gt;&lt;font style=&quot;font-size: 120px;&quot;&gt;2,073,600个物理像素点&lt;/font&gt;&lt;/div&gt;" style="rounded=0;whiteSpace=wrap;html=1;glass=0;shadow=0;" vertex="1" parent="1">
          <mxGeometry x="360" y="320" width="1980" height="1080" as="geometry" />
        </mxCell>
        <mxCell id="NWqzphJ8UUNpfhIfImkF-2" value="1980px" style="text;html=1;align=center;verticalAlign=middle;resizable=0;points=[];autosize=1;strokeColor=none;fillColor=none;fontSize=120;" vertex="1" parent="1">
          <mxGeometry x="1140" y="150" width="420" height="160" as="geometry" />
        </mxCell>
        <mxCell id="NWqzphJ8UUNpfhIfImkF-3" value="1080px" style="text;html=1;align=center;verticalAlign=middle;resizable=0;points=[];autosize=1;strokeColor=none;fillColor=none;fontSize=120;" vertex="1" parent="1">
          <mxGeometry x="-70" y="750" width="420" height="160" as="geometry" />
        </mxCell>
      </root>
    </mxGraphModel>
  </diagram>
</mxfile>
